<svg width="19" height="20" viewBox="0 0 19 20" fill="currentColor" xmlns="http://www.w3.org/2000/svg">
<path d="M6.25 14.5C5.55 14.5 4.95833 14.2583 4.475 13.775C3.99167 13.2917 3.75 12.7 3.75 12C3.75 11.3 3.99167 10.7083 4.475 10.225C4.95833 9.74167 5.55 9.5 6.25 9.5C6.95 9.5 7.54167 9.74167 8.025 10.225C8.50833 10.7083 8.75 11.3 8.75 12C8.75 12.7 8.50833 13.2917 8.025 13.775C7.54167 14.2583 6.95 14.5 6.25 14.5ZM2.25 20C1.7 20 1.22917 19.8042 0.8375 19.4125C0.445833 19.0208 0.25 18.55 0.25 18V4C0.25 3.45 0.445833 2.97917 0.8375 2.5875C1.22917 2.19583 1.7 2 2.25 2H3.25V0H5.25V2H13.25V0H15.25V2H16.25C16.8 2 17.2708 2.19583 17.6625 2.5875C18.0542 2.97917 18.25 3.45 18.25 4V18C18.25 18.55 18.0542 19.0208 17.6625 19.4125C17.2708 19.8042 16.8 20 16.25 20H2.25ZM2.25 18H16.25V8H2.25V18Z" fill="currentColor"/>
</svg>
