<svg width="24" height="24" viewBox="0 0 24 24" fill="none" xmlns="http://www.w3.org/2000/svg">
<path d="M16.2471 7.76074C17.3701 8.88566 18.0008 10.4102 18.0008 11.9997C18.0008 13.5893 17.3701 15.1138 16.2471 16.2387" stroke="white" stroke-width="2" stroke-linecap="round" stroke-linejoin="round"/>
<path d="M19.0752 4.93262C20.9481 6.80765 22.0001 9.34945 22.0001 11.9996C22.0001 14.6498 20.9481 17.1916 19.0752 19.0666" stroke="white" stroke-width="2" stroke-linecap="round" stroke-linejoin="round"/>
<path d="M4.92487 19.0666C3.05199 17.1916 2 14.6498 2 11.9996C2 9.34945 3.05199 6.80765 4.92487 4.93262" stroke="white" stroke-width="2" stroke-linecap="round" stroke-linejoin="round"/>
<path d="M7.75275 16.2387C6.62975 15.1138 5.99902 13.5893 5.99902 11.9997C5.99902 10.4102 6.62975 8.88566 7.75275 7.76074" stroke="white" stroke-width="2" stroke-linecap="round" stroke-linejoin="round"/>
<path d="M12 14C13.1046 14 14 13.1046 14 12C14 10.8954 13.1046 10 12 10C10.8954 10 10 10.8954 10 12C10 13.1046 10.8954 14 12 14Z" stroke="white" stroke-width="2" stroke-linecap="round" stroke-linejoin="round"/>
</svg>
