<svg width="21" height="19" viewBox="0 0 21 19" fill="currentColor" xmlns="http://www.w3.org/2000/svg">
<path d="M10.75 19.0004L9.3 17.7004C7.61667 16.1837 6.225 14.8754 5.125 13.7754C4.025 12.6754 3.15 11.6921 2.5 10.8254C1.85 9.94206 1.39167 9.13372 1.125 8.40039C0.875 7.66706 0.75 6.91706 0.75 6.15039C0.75 4.58372 1.275 3.27539 2.325 2.22539C3.375 1.17539 4.68333 0.650391 6.25 0.650391C7.11667 0.650391 7.94167 0.833724 8.725 1.20039C9.50833 1.56706 10.1833 2.08372 10.75 2.75039C11.3167 2.08372 11.9917 1.56706 12.775 1.20039C13.5583 0.833724 14.3833 0.650391 15.25 0.650391C16.8167 0.650391 18.125 1.17539 19.175 2.22539C20.225 3.27539 20.75 4.58372 20.75 6.15039C20.75 6.91706 20.6167 7.66706 20.35 8.40039C20.1 9.13372 19.65 9.94206 19 10.8254C18.35 11.6921 17.475 12.6754 16.375 13.7754C15.275 14.8754 13.8833 16.1837 12.2 17.7004L10.75 19.0004ZM10.75 16.3004C12.35 14.8671 13.6667 13.6421 14.7 12.6254C15.7333 11.5921 16.55 10.7004 17.15 9.95039C17.75 9.18373 18.1667 8.50873 18.4 7.92539C18.6333 7.32539 18.75 6.73373 18.75 6.15039C18.75 5.15039 18.4167 4.31706 17.75 3.65039C17.0833 2.98373 16.25 2.65039 15.25 2.65039C14.4667 2.65039 13.7417 2.87539 13.075 3.32539C12.4083 3.75872 11.95 4.31706 11.7 5.00039H9.8C9.55 4.31706 9.09167 3.75872 8.425 3.32539C7.75833 2.87539 7.03333 2.65039 6.25 2.65039C5.25 2.65039 4.41667 2.98373 3.75 3.65039C3.08333 4.31706 2.75 5.15039 2.75 6.15039C2.75 6.73373 2.86667 7.32539 3.1 7.92539C3.33333 8.50873 3.75 9.18373 4.35 9.95039C4.95 10.7004 5.76667 11.5921 6.8 12.6254C7.83333 13.6421 9.15 14.8671 10.75 16.3004Z" fill="currentColor"/>
</svg>
